<?xml version="1.0" encoding="utf-8"?>
<!-- Svg Vector Icons : http://www.onlinewebfonts.com/icon -->
<!DOCTYPE svg PUBLIC "-//W3C//DTD SVG 1.1//EN" "http://www.w3.org/Graphics/SVG/1.1/DTD/svg11.dtd">
<svg version="1.1" xmlns="http://www.w3.org/2000/svg" xmlns:xlink="http://www.w3.org/1999/xlink" x="0px" y="0px" viewBox="0 0 256 256" enable-background="new 0 0 256 256" xml:space="preserve">
<metadata> Svg Vector Icons : http://www.onlinewebfonts.com/icon </metadata>
<g><g><path fill="#fff" d="M178.6,220.7c0,4.6-3.8,8.4-8.4,8.4H85.9c-4.6,0-8.4-3.8-8.4-8.4l0,0c0-4.6,3.8-8.4,8.4-8.4h84.3C174.8,212.3,178.6,216.1,178.6,220.7L178.6,220.7z"/><path fill="#fff" d="M122.2,195.4h11.7v16.9h-11.7V195.4L122.2,195.4z"/><path fill="#fff" d="M10,26.9v168.6h236V26.9H10z M212.2,189.6c-6.2,0-11.3-5.1-11.3-11.3c0-6.2,5.1-11.3,11.3-11.3c6.2,0,11.3,5.1,11.3,11.3C223.5,184.6,218.5,189.6,212.2,189.6z M178.5,189.6c-6.2,0-11.3-5.1-11.3-11.3c0-6.2,5.1-11.3,11.3-11.3c6.2,0,11.3,5.1,11.3,11.3C189.7,184.6,184.7,189.6,178.5,189.6z M144.5,189.6c-6.2,0-11.3-5.1-11.3-11.3c0-6.2,5.1-11.3,11.3-11.3s11.3,5.1,11.3,11.3C155.8,184.6,150.7,189.6,144.5,189.6z M238.5,161.7H17.5V35.5h220.9L238.5,161.7L238.5,161.7z"/></g></g>
</svg>