<?xml version="1.0" encoding="utf-8"?>
<!-- Svg Vector Icons : http://www.onlinewebfonts.com/icon -->
<!DOCTYPE svg PUBLIC "-//W3C//DTD SVG 1.1//EN" "http://www.w3.org/Graphics/SVG/1.1/DTD/svg11.dtd">
<svg version="1.1" xmlns="http://www.w3.org/2000/svg" xmlns:xlink="http://www.w3.org/1999/xlink" x="0px" y="0px" viewBox="0 0 256 256" enable-background="new 0 0 256 256" xml:space="preserve">
<metadata> Svg Vector Icons : http://www.onlinewebfonts.com/icon </metadata>
<g><g><path fill="#fff" d="M17.7,29.5c3.8-1,7.8-0.6,11.8-0.6c65.3,0,130.6,0,195.9,0c4,0,8.1-0.3,12.1,0.4c5.2,1.2,8.9,6.4,8.5,11.8c0,47.8,0,95.7,0,143.5c0.3,4.1-1.4,8.4-4.9,10.7c-3.9,2.7-8.9,1.8-13.3,2c-68.5-0.1-137,0-205.5,0c-5,0.3-10.1-2.9-11.6-7.8c-0.9-4-0.5-8.1-0.5-12.2c0-45.4,0-90.9,0-136.3C9.7,36,12.9,31,17.7,29.5 M127,33.1c-1.9,1.2,0.3,4.2,2,2.8C130.9,34.7,128.8,31.7,127,33.1 M21.3,40.1c0,41.2,0,82.3,0,123.5c71.2,0,142.3,0,213.4,0c0-41.2,0-82.3,0-123.5C163.6,40.1,92.5,40.1,21.3,40.1L21.3,40.1z"/><path fill="#fff" d="M105.6,199.1c15.6-0.1,31.1,0,46.7,0c0.2,5,0,10.2,2.2,14.8c2.3,4.7,7.2,7.4,9.5,12.1c-2.6,0.7-5.3,1.2-8.1,1.2c-17.8,0-35.6,0-53.5,0c-3-0.1-6.5,0.3-8.7-2.2c2.8-3,5.9-5.8,8.3-9C105.7,211,105.4,204.8,105.6,199.1L105.6,199.1z"/></g></g>
</svg>