<?xml version="1.0" encoding="utf-8"?>
<!-- Svg Vector Icons : http://www.onlinewebfonts.com/icon -->
<!DOCTYPE svg PUBLIC "-//W3C//DTD SVG 1.1//EN" "http://www.w3.org/Graphics/SVG/1.1/DTD/svg11.dtd">
<svg version="1.1" xmlns="http://www.w3.org/2000/svg" xmlns:xlink="http://www.w3.org/1999/xlink" x="0px" y="0px" viewBox="0 0 256 256" enable-background="new 0 0 256 256" xml:space="preserve">
<metadata> Svg Vector Icons : http://www.onlinewebfonts.com/icon </metadata>
<g><g><g><path fill="#fff" d="M77.4,10.5c-7.3,1.1-14.1,6.4-17.6,13.7L58,28.1V128v99.9l1.8,3.9c3.6,7.5,10.2,12.6,18.1,13.7c5,0.7,96,0.7,100.4,0c7.7-1.3,14.2-6.3,17.7-13.7l1.8-3.9V128V28.1l-1.8-3.9c-3.5-7.4-10-12.4-17.7-13.7C174.3,9.8,82,9.9,77.4,10.5z M185.6,117.6v80.6H128H70.4v-80.6V37H128h57.6V117.6z M133.8,209c4.5,2.4,6.4,5.4,6.7,10.5c0.2,3.5,0.1,4.3-1.4,6.9c-2.6,5-8,7.6-13.4,6.7c-3.5-0.6-7.1-3.3-8.9-6.7c-1.4-2.5-1.6-3.4-1.4-6.9c0.2-3.3,0.5-4.4,1.9-6.4c2.3-3.2,6.9-5.6,10.7-5.6C129.9,207.4,131.7,207.9,133.8,209z"/></g></g></g>
</svg>